<?xml version="1.0" encoding="UTF-8"?><!DOCTYPE svg PUBLIC "-//W3C//DTD SVG 1.1//EN" "http://www.w3.org/Graphics/SVG/1.1/DTD/svg11.dtd">
<svg xmlns="http://www.w3.org/2000/svg">
<symbol id="plyr-play" viewBox="0 0 18 18"><path d="M16.562 8.1l-11.692-7.875c-0.818-0.562-1.87 0-1.87 0.9v15.75c0 0.9 1.052 1.462 1.87 0.9l11.693-7.875c0.584-0.45 0.584-1.35 0-1.8z"/></symbol>
<symbol id="plyr-pause" viewBox="0 0 18 18"><path d="M6 1H3c-.6 0-1 .4-1 1v14c0 .6.4 1 1 1h3c.6 0 1-.4 1-1V2c0-.6-.4-1-1-1zM12 1c-.6 0-1 .4-1 1v14c0 .6.4 1 1 1h3c.6 0 1-.4 1-1V2c0-.6-.4-1-1-1h-3z"/></symbol>
<symbol id="plyr-prev" viewBox="0 0 24 24"><path d="M8 11.3333L18.2227 4.51823C18.4524 4.36506 18.7628 4.42714 18.916 4.65691C18.9708 4.73904 19 4.83555 19 4.93426V19.0657C19 19.3419 18.7761 19.5657 18.5 19.5657C18.4013 19.5657 18.3048 19.5365 18.2227 19.4818L8 12.6667V19C8 19.5523 7.55228 20 7 20C6.44772 20 6 19.5523 6 19V5C6 4.44772 6.44772 4 7 4C7.55228 4 8 4.44772 8 5V11.3333Z"/></symbol>
<symbol id="plyr-next" viewBox="0 0 24 24"><path d="M16 12.6667L5.77735 19.4818C5.54759 19.6349 5.23715 19.5729 5.08397 19.3431C5.02922 19.261 5 19.1645 5 19.0657V4.93426C5 4.65812 5.22386 4.43426 5.5 4.43426C5.59871 4.43426 5.69522 4.46348 5.77735 4.51823L16 11.3333V5C16 4.44772 16.4477 4 17 4C17.5523 4 18 4.44772 18 5V19C18 19.5523 17.5523 20 17 20C16.4477 20 16 19.5523 16 19V12.6667Z"/></symbol>
<symbol id="plyr-shuffle" viewBox="0 0 24 24"><path d="M16.2 7h2.85l-1.3 1.3c-.4.4-.4 1 0 1.4q.375.3.75.3c.25 0 .5-.1.7-.3l3-3 .15-.15.05-.05c0-.025.013-.037.025-.05s.025-.025.025-.05q-.001-.03.004-.044c.005-.015.017-.027.046-.056q-.001-.03.004-.044c.005-.015.017-.027.046-.056.05-.15.05-.25 0-.4 0-.05 0-.05-.05-.1q.001-.03-.004-.044c-.005-.015-.017-.027-.046-.056 0-.025-.012-.037-.025-.05-.012-.013-.025-.025-.025-.05 0 0 0-.05-.05-.05l-.15-.15-3-3c-.4-.4-1-.4-1.4 0s-.4 1 0 1.4L19.1 5h-2.85c-1.75 0-3.3.9-4.25 2.35L6.85 15.6c-.55.9-1.5 1.4-2.55 1.4H2.5c-.55 0-1 .45-1 1s.45 1 1 1h1.8c1.75 0 3.3-.9 4.25-2.35L13.7 8.4c.5-.85 1.5-1.4 2.5-1.4M2.5 7h1.8c1.05 0 2 .5 2.55 1.4l.45.75 1.2-1.9C7.55 5.8 6 4.95 4.3 4.95H2.5c-.55 0-1 .45-1 1 0 .6.45 1.05 1 1.05m19.95 11.2v.05c0 .05 0 .1-.05.1v.05c-.05.1-.1.2-.2.3l-3 3c-.2.2-.45.3-.7.3q-.375 0-.75-.3c-.4-.4-.4-1 0-1.4l1.3-1.3H16.2c-1.7 0-3.25-.85-4.2-2.3l1.25-1.9.45.75c.55.9 1.5 1.4 2.55 1.4h2.85l-1.3-1.3c-.4-.4-.4-1 0-1.4s1-.4 1.4 0l3 3c.1.1.15.2.2.3v.05c.05.05.05.1.05.15v.05c.05.15.05.25 0 .4Z"/></symbol>
<symbol id="plyr-repeat" viewBox="0 0 24 24"><path d="M16.293 1.293a1 1 0 0 1 1.414 0l3 3a1 1 0 0 1 0 1.414l-3 3a1 1 0 1 1-1.414-1.414L17.586 6H8.5c-3.298 0-6 2.702-6 6a1 1 0 1 1-2 0c0-4.402 3.598-8 8-8h9.086l-1.293-1.293a1 1 0 0 1 0-1.414M23.5 12a1 1 0 1 0-2 0c0 3.298-2.702 6-6 6H6.414l1.293-1.293a1 1 0 1 0-1.414-1.414l-3 3a1 1 0 0 0 0 1.414l3 3a1 1 0 0 0 1.414-1.414L6.414 20H15.5c4.402 0 8-3.598 8-8Z"/></symbol>
<symbol id="plyr-repeat-once" viewBox="0 0 24 24"><path d="M16.293 1.293a1 1 0 0 1 1.414 0l3 3a1 1 0 0 1 0 1.414l-3 3a1 1 0 1 1-1.414-1.414L17.586 6H8.5c-3.298 0-6 2.702-6 6a1 1 0 1 1-2 0c0-4.402 3.598-8 8-8h9.086l-1.293-1.293a1 1 0 0 1 0-1.414M23.5 12a1 1 0 1 0-2 0c0 3.298-2.702 6-6 6H6.414l1.293-1.293a1 1 0 1 0-1.414-1.414l-3 3a1 1 0 0 0 0 1.414l3 3a1 1 0 0 0 1.414-1.414L6.414 20H15.5c4.402 0 8-3.598 8-8ZM11 8H13V16H11V10H9V9L11 8Z"/></symbol>
<symbol id="plyr-restart" viewBox="0 0 24 24"><path d="M12 4C14.7486 4 17.1749 5.38626 18.6156 7.5H16V9.5H22V3.5H20V5.99936C18.1762 3.57166 15.2724 2 12 2C6.47715 2 2 6.47715 2 12H4C4 7.58172 7.58172 4 12 4ZM20 12C20 16.4183 16.4183 20 12 20C9.25144 20 6.82508 18.6137 5.38443 16.5H8V14.5H2V20.5H4V18.0006C5.82381 20.4283 8.72764 22 12 22C17.5228 22 22 17.5228 22 12H20Z"/></symbol>
<symbol id="plyr-rewind" viewBox="84.21 19.76 99.61 109.08"><path d="M84.205 79.035c0 27.246 22.608 49.804 49.805 49.804 27.246 0 49.805-22.558 49.805-49.804 0-24.024-17.53-44.385-40.381-48.877v-6.934c0-3.467-2.393-4.395-5.03-2.49l-15.576 10.888c-2.246 1.563-2.295 3.907 0 5.518l15.528 10.938c2.685 1.953 5.078 1.025 5.078-2.49v-6.934c18.457 4.199 32.031 20.605 32.031 40.38 0 23.047-18.408 41.504-41.455 41.504-23.047 0-41.553-18.457-41.504-41.503.049-13.868 6.787-26.124 17.188-33.545 2.002-1.514 2.636-3.809 1.416-5.86-1.221-2.002-3.907-2.539-6.055-.879-12.549 9.131-20.85 23.877-20.85 40.284Zm35.547 20.02c1.904 0 3.125-1.32 3.125-3.37v-30.81c0-2.49-1.27-3.81-3.467-3.81-1.367 0-2.343.44-4.052 1.612l-6.739 4.541c-1.123.83-1.66 1.71-1.66 2.832 0 1.611 1.27 2.979 2.881 2.979.928 0 1.416-.196 2.344-.928l4.59-3.37v26.954c0 2.002 1.172 3.37 2.978 3.37Zm24.805.585c8.105 0 13.476-5.225 13.476-13.086 0-7.178-4.834-12.305-11.816-12.305-2.88 0-6.006 1.319-7.47 3.516l.83-10.547h14.648c1.416 0 2.637-1.172 2.637-2.832s-1.221-2.734-2.637-2.734H138.6c-2.54 0-3.955 1.465-4.2 4.052l-1.025 14.063c-.244 2.441 1.026 3.613 3.174 3.613 1.611 0 2.295-.293 3.71-1.367 1.856-1.709 3.37-2.393 5.274-2.393 3.809 0 6.348 2.784 6.348 7.032 0 4.297-2.978 7.422-7.031 7.422-2.881 0-5.371-1.66-6.64-4.2-.733-1.27-1.612-1.953-2.833-1.953-1.611 0-2.734 1.172-2.734 2.832 0 .684.146 1.319.39 1.953 1.319 3.516 5.616 6.934 11.524 6.934Z"/></symbol>
<symbol id="plyr-forward" viewBox="84.21 19.78 99.61 109.06"><path d="M84.205 79.035c0 27.246 22.608 49.804 49.805 49.804 27.246 0 49.805-22.558 49.805-49.804 0-16.407-8.301-31.153-20.85-40.284-2.148-1.66-4.834-1.123-6.055.88-1.22 2.05-.586 4.345 1.416 5.859 10.4 7.421 17.139 19.677 17.188 33.545.049 23.046-18.457 41.503-41.504 41.503-23.047 0-41.455-18.457-41.455-41.503 0-19.776 13.574-36.182 32.031-40.381v6.982c0 3.467 2.393 4.395 5.078 2.49L145.24 37.19c2.198-1.514 2.247-3.858 0-5.469l-15.527-10.937c-2.734-1.954-5.127-1.026-5.127 2.49v6.885c-22.851 4.492-40.38 24.853-40.38 48.877ZM118.58 99.59c7.666 0 13.135-4.638 13.135-11.23 0-4.541-3.027-8.301-7.324-9.082 3.467-.977 6.103-4.59 6.103-8.692 0-5.859-4.785-9.96-11.62-9.96-5.909 0-10.84 3.32-11.866 8.056a6.314 6.314 0 0 0-.195 1.611c0 1.758 1.123 2.979 2.783 2.979 1.416 0 2.295-.733 2.832-2.295 1.025-3.076 3.076-4.688 6.299-4.688 3.418 0 5.761 2.051 5.761 5.03 0 3.125-2.343 5.42-5.81 5.42h-2.1c-1.611 0-2.685 1.123-2.685 2.832 0 1.611 1.123 2.832 2.685 2.832h2.344c4.102 0 6.69 2.295 6.69 5.713 0 3.32-2.93 5.859-6.983 5.859-3.418 0-5.86-1.709-6.933-4.736-.586-1.612-1.465-2.295-2.784-2.295-1.66 0-2.832 1.27-2.832 2.978 0 .537.05 1.074.196 1.612 1.074 4.59 6.347 8.056 12.304 8.056Zm31.494 0c8.106 0 13.428-7.666 13.428-19.385 0-11.816-5.322-19.58-13.428-19.58-8.154 0-13.427 7.715-13.427 19.58 0 11.72 5.322 19.385 13.427 19.385Zm0-5.908c-4.296 0-7.08-5.127-7.08-13.477 0-8.496 2.735-13.671 7.08-13.671 4.346 0 7.032 5.126 7.032 13.671 0 8.35-2.735 13.477-7.032 13.477Z"/></symbol>
<symbol id="plyr-settings" viewBox="0 0 24 24"><path d="M3.33946 17.0002C2.90721 16.2515 2.58277 15.4702 2.36133 14.6741C3.3338 14.1779 3.99972 13.1668 3.99972 12.0002C3.99972 10.8345 3.3348 9.824 2.36353 9.32741C2.81025 7.71651 3.65857 6.21627 4.86474 4.99001C5.7807 5.58416 6.98935 5.65534 7.99972 5.072C9.01009 4.48866 9.55277 3.40635 9.4962 2.31604C11.1613 1.8846 12.8847 1.90004 14.5031 2.31862C14.4475 3.40806 14.9901 4.48912 15.9997 5.072C17.0101 5.65532 18.2187 5.58416 19.1346 4.99007C19.7133 5.57986 20.2277 6.25151 20.66 7.00021C21.0922 7.7489 21.4167 8.53025 21.6381 9.32628C20.6656 9.82247 19.9997 10.8336 19.9997 12.0002C19.9997 13.166 20.6646 14.1764 21.6359 14.673C21.1892 16.2839 20.3409 17.7841 19.1347 19.0104C18.2187 18.4163 17.0101 18.3451 15.9997 18.9284C14.9893 19.5117 14.4467 20.5941 14.5032 21.6844C12.8382 22.1158 11.1148 22.1004 9.49633 21.6818C9.55191 20.5923 9.00929 19.5113 7.99972 18.9284C6.98938 18.3451 5.78079 18.4162 4.86484 19.0103C4.28617 18.4205 3.77172 17.7489 3.33946 17.0002ZM8.99972 17.1964C10.0911 17.8265 10.8749 18.8227 11.2503 19.9659C11.7486 20.0133 12.2502 20.014 12.7486 19.9675C13.1238 18.8237 13.9078 17.8268 14.9997 17.1964C16.0916 16.5659 17.347 16.3855 18.5252 16.6324C18.8146 16.224 19.0648 15.7892 19.2729 15.334C18.4706 14.4373 17.9997 13.2604 17.9997 12.0002C17.9997 10.74 18.4706 9.5632 19.2729 8.6665C19.1688 8.4405 19.0538 8.21822 18.9279 8.00021C18.802 7.78219 18.667 7.57148 18.5233 7.36842C17.3457 7.61476 16.0911 7.43414 14.9997 6.80405C13.9083 6.17395 13.1246 5.17768 12.7491 4.03455C12.2509 3.98714 11.7492 3.98646 11.2509 4.03292C10.8756 5.17671 10.0916 6.17364 8.99972 6.80405C7.9078 7.43447 6.65245 7.61494 5.47428 7.36803C5.18485 7.77641 4.93463 8.21117 4.72656 8.66637C5.52881 9.56311 5.99972 10.74 5.99972 12.0002C5.99972 13.2604 5.52883 14.4372 4.72656 15.3339C4.83067 15.5599 4.94564 15.7822 5.07152 16.0002C5.19739 16.2182 5.3324 16.4289 5.47612 16.632C6.65377 16.3857 7.90838 16.5663 8.99972 17.1964ZM11.9997 15.0002C10.3429 15.0002 8.99972 13.6571 8.99972 12.0002C8.99972 10.3434 10.3429 9.00021 11.9997 9.00021C13.6566 9.00021 14.9997 10.3434 14.9997 12.0002C14.9997 13.6571 13.6566 15.0002 11.9997 15.0002ZM11.9997 13.0002C12.552 13.0002 12.9997 12.5525 12.9997 12.0002C12.9997 11.4479 12.552 11.0002 11.9997 11.0002C11.4474 11.0002 10.9997 11.4479 10.9997 12.0002C10.9997 12.5525 11.4474 13.0002 11.9997 13.0002Z"/></symbol>
<symbol id="plyr-captions-on" viewBox="0 0 24 24"><path d="M21 3C21.5523 3 22 3.44772 22 4V20C22 20.5523 21.5523 21 21 21H3C2.44772 21 2 20.5523 2 20V4C2 3.44772 2.44772 3 3 3H21ZM9 8C6.792 8 5 9.792 5 12C5 14.208 6.792 16 9 16C10.1 16 11.1 15.55 11.828 14.828L10.4144 13.4144C10.0525 13.7762 9.5525 14 9 14C7.895 14 7 13.105 7 12C7 10.895 7.895 10 9 10C9.55 10 10.0483 10.22 10.4153 10.5866L11.829 9.173C11.1049 8.44841 10.1045 8 9 8ZM16 8C13.792 8 12 9.792 12 12C12 14.208 13.792 16 16 16C17.104 16 18.104 15.552 18.828 14.828L17.4144 13.4144C17.0525 13.7762 16.5525 14 16 14C14.895 14 14 13.105 14 12C14 10.895 14.895 10 16 10C16.553 10 17.0534 10.2241 17.4153 10.5866L18.829 9.173C18.1049 8.44841 17.1045 8 16 8Z"/></symbol>
<symbol id="plyr-captions-off" viewBox="0 0 24 24"><path d="M21 3C21.5523 3 22 3.44772 22 4V20C22 20.5523 21.5523 21 21 21H3C2.44772 21 2 20.5523 2 20V4C2 3.44772 2.44772 3 3 3H21ZM20 5H4V19H20V5ZM9 8C10.1045 8 11.1049 8.44841 11.829 9.173L10.4153 10.5866C10.0534 10.2241 9.55299 10 9 10C7.895 10 7 10.895 7 12C7 13.105 7.895 14 9 14C9.5525 14 10.0525 13.7762 10.4144 13.4144L11.828 14.828C11.104 15.552 10.104 16 9 16C6.792 16 5 14.208 5 12C5 9.792 6.792 8 9 8ZM16 8C17.1045 8 18.1049 8.44841 18.829 9.173L17.4153 10.5866C17.0534 10.2241 16.553 10 16 10C14.895 10 14 10.895 14 12C14 13.105 14.895 14 16 14C16.5525 14 17.0525 13.7762 17.4144 13.4144L18.828 14.828C18.104 15.552 17.104 16 16 16C13.792 16 12 14.208 12 12C12 9.792 13.792 8 16 8Z"/></symbol>
<symbol id="plyr-video-on" viewBox="0 0 24 24"><path d="M3 3.9934C3 3.44476 3.44495 3 3.9934 3H20.0066C20.5552 3 21 3.44495 21 3.9934V20.0066C21 20.5552 20.5551 21 20.0066 21H3.9934C3.44476 21 3 20.5551 3 20.0066V3.9934ZM10.6219 8.41459C10.5562 8.37078 10.479 8.34741 10.4 8.34741C10.1791 8.34741 10 8.52649 10 8.74741V15.2526C10 15.3316 10.0234 15.4088 10.0672 15.4745C10.1897 15.6583 10.4381 15.708 10.6219 15.5854L15.5008 12.3328C15.5447 12.3035 15.5824 12.2658 15.6117 12.2219C15.7343 12.0381 15.6846 11.7897 15.5008 11.6672L10.6219 8.41459Z"/></symbol>
<symbol id="plyr-video-off" viewBox="0 0 24 24"><path d="M2 3.9934C2 3.44476 2.45531 3 2.9918 3H21.0082C21.556 3 22 3.44495 22 3.9934V20.0066C22 20.5552 21.5447 21 21.0082 21H2.9918C2.44405 21 2 20.5551 2 20.0066V3.9934ZM4 5V19H20V5H4ZM10.6219 8.41459L15.5008 11.6672C15.6846 11.7897 15.7343 12.0381 15.6117 12.2219C15.5824 12.2658 15.5447 12.3035 15.5008 12.3328L10.6219 15.5854C10.4381 15.708 10.1897 15.6583 10.0672 15.4745C10.0234 15.4088 10 15.3316 10 15.2526V8.74741C10 8.52649 10.1791 8.34741 10.4 8.34741C10.479 8.34741 10.5562 8.37078 10.6219 8.41459Z"/></symbol>
<symbol id="plyr-enter-fullscreen" viewBox="0 0 24 24"><path d="M17.5858 5H14V3H21V10H19V6.41421L14.7071 10.7071L13.2929 9.29289L17.5858 5ZM3 14H5V17.5858L9.29289 13.2929L10.7071 14.7071L6.41421 19H10V21H3V14Z"/></symbol>
<symbol id="plyr-exit-fullscreen" viewBox="0 0 24 24"><path d="M15 4.00008H13V11.0001H20V9.00008H16.4142L20.7071 4.70718L19.2929 3.29297L15 7.58586V4.00008ZM4.00008 15H7.58586L3.29297 19.2929L4.70718 20.7071L9.00008 16.4142V20H11.0001V13H4.00008V15Z"/></symbol>
<symbol id="plyr-muted" viewBox="0 0 24 24"><path d="M10 7.22056L6.60282 10.0001H3V14.0001H6.60282L10 16.7796V7.22056ZM5.88889 16.0001H2C1.44772 16.0001 1 15.5524 1 15.0001V9.00007C1 8.44778 1.44772 8.00007 2 8.00007H5.88889L11.1834 3.66821C11.3971 3.49335 11.7121 3.52485 11.887 3.73857C11.9601 3.8279 12 3.93977 12 4.05519V19.9449C12 20.2211 11.7761 20.4449 11.5 20.4449C11.3846 20.4449 11.2727 20.405 11.1834 20.3319L5.88889 16.0001ZM20.4142 12.0001L23.9497 15.5356L22.5355 16.9498L19 13.4143L15.4645 16.9498L14.0503 15.5356L17.5858 12.0001L14.0503 8.46454L15.4645 7.05032L19 10.5859L22.5355 7.05032L23.9497 8.46454L20.4142 12.0001Z"/></symbol>
<symbol id="plyr-volume" viewBox="0 0 24 24"><path d="M6.60282 10.0001L10 7.22056V16.7796L6.60282 14.0001H3V10.0001H6.60282ZM2 16.0001H5.88889L11.1834 20.3319C11.2727 20.405 11.3846 20.4449 11.5 20.4449C11.7761 20.4449 12 20.2211 12 19.9449V4.05519C12 3.93977 11.9601 3.8279 11.887 3.73857C11.7121 3.52485 11.3971 3.49335 11.1834 3.66821L5.88889 8.00007H2C1.44772 8.00007 1 8.44778 1 9.00007V15.0001C1 15.5524 1.44772 16.0001 2 16.0001ZM23 12C23 15.292 21.5539 18.2463 19.2622 20.2622L17.8445 18.8444C19.7758 17.1937 21 14.7398 21 12C21 9.26016 19.7758 6.80629 17.8445 5.15557L19.2622 3.73779C21.5539 5.75368 23 8.70795 23 12ZM18 12C18 10.0883 17.106 8.38548 15.7133 7.28673L14.2842 8.71584C15.3213 9.43855 16 10.64 16 12C16 13.36 15.3213 14.5614 14.2842 15.2841L15.7133 16.7132C17.106 15.6145 18 13.9116 18 12Z"/></symbol>
<symbol id="plyr-list" viewBox="0 0 24 24"><path d="M8 4H21V6H8V4ZM4.5 6.5C3.67157 6.5 3 5.82843 3 5C3 4.17157 3.67157 3.5 4.5 3.5C5.32843 3.5 6 4.17157 6 5C6 5.82843 5.32843 6.5 4.5 6.5ZM4.5 13.5C3.67157 13.5 3 12.8284 3 12C3 11.1716 3.67157 10.5 4.5 10.5C5.32843 10.5 6 11.1716 6 12C6 12.8284 5.32843 13.5 4.5 13.5ZM4.5 20.4C3.67157 20.4 3 19.7284 3 18.9C3 18.0716 3.67157 17.4 4.5 17.4C5.32843 17.4 6 18.0716 6 18.9C6 19.7284 5.32843 20.4 4.5 20.4ZM8 11H21V13H8V11ZM8 18H21V20H8V18Z"/></symbol>
<symbol id="plyr-airplay" viewBox="0 0 24 24"><polygon points="6,22 18,22 12,16"/><path d="M21,3H3C1.9,3,1,3.9,1,5v12c0,1.1,0.9,2,2,2h4v-2H3V5h18v12h-4v2h4c1.1,0,2-0.9,2-2V5C23,3.9,22.1,3,21,3z"/></symbol>
<symbol id="plyr-pip" viewBox="0 0 24 24"><path d="M21 3C21.5523 3 22 3.44772 22 4V11H20V5H4V19H10V21H3C2.44772 21 2 20.5523 2 20V4C2 3.44772 2.44772 3 3 3H21ZM21 13C21.5523 13 22 13.4477 22 14V20C22 20.5523 21.5523 21 21 21H13C12.4477 21 12 20.5523 12 20V14C12 13.4477 12.4477 13 13 13H21ZM20 15H14V19H20V15Z"/></symbol>
<symbol id="plyr-like" viewBox="0 0 24 24"><path d="M16.5 3C19.5376 3 22 5.5 22 9C22 16 14.5 20 12 21.5C9.5 20 2 16 2 9C2 5.5 4.5 3 7.5 3C9.35997 3 11 4 12 5C13 4 14.64 3 16.5 3Z"></path></symbol>
<symbol id="plyr-download" viewBox="0 0 24 24"><path d="M3 19H21V21H3V19ZM13 13.1716L19.0711 7.1005L20.4853 8.51472L12 17L3.51472 8.51472L4.92893 7.1005L11 13.1716V2H13V13.1716Z"/></symbol>
<symbol id="plyr-save" viewBox="0 0 24 24"><path d="M14 10H2v2h12v-2zm0-4H2v2h12V6zm4 8v-4h-2v4h-4v2h4v4h2v-4h4v-2h-4zM2 16h8v-2H2v2z"/></symbol>
<symbol id="plyr-share" viewBox="0 0 16 16"><path d="M6.598 5.013a.144.144 0 0 1 .202.134V6.3a.5.5 0 0 0 .5.5c.667 0 2.013.005 3.3.822.984.624 1.99 1.76 2.595 3.876-1.02-.983-2.185-1.516-3.205-1.799a8.7 8.7 0 0 0-1.921-.306 7 7 0 0 0-.798.008h-.013l-.005.001h-.001L7.3 9.9l-.05-.498a.5.5 0 0 0-.45.498v1.153c0 .108-.11.176-.202.134L2.614 8.254l-.042-.028a.147.147 0 0 1 0-.252l.042-.028zM7.8 10.386q.103 0 .223.006c.434.02 1.034.086 1.7.271 1.326.368 2.896 1.202 3.94 3.08a.5.5 0 0 0 .933-.305c-.464-3.71-1.886-5.662-3.46-6.66-1.245-.79-2.527-.942-3.336-.971v-.66a1.144 1.144 0 0 0-1.767-.96l-3.994 2.94a1.147 1.147 0 0 0 0 1.946l3.994 2.94a1.144 1.144 0 0 0 1.767-.96z"/></symbol>
<symbol id="plyr-comment" viewBox="0 0 24 24"><path d="M10 3H14C18.4183 3 22 6.58172 22 11C22 15.4183 18.4183 19 14 19V22.5C9 20.5 2 17.5 2 11C2 6.58172 5.58172 3 10 3ZM12 17H14C17.3137 17 20 14.3137 20 11C20 7.68629 17.3137 5 14 5H10C6.68629 5 4 7.68629 4 11C4 14.61 6.46208 16.9656 12 19.4798V17Z"></path></symbol>
<symbol id="plyr-expander" viewBox="0 0 24 24"><path d="M12 8l-6 6 1.41 1.41L12 10.83l4.59 4.58L18 14z"/></symbol>
<symbol id="plyr-collapse" viewBox="0 0 24 24"><path d="M12,15.7L5.6,9.4l0.7-0.7l5.6,5.6l5.6-5.6l0.7,0.7L12,15.7z"/></symbol>
<symbol id="plyr-close" viewBox="0 0 24 24"><path d="M19 6.41L17.59 5 12 10.59 6.41 5 5 6.41 10.59 12 5 17.59 6.41 19 12 13.41 17.59 19 19 17.59 13.41 12z"/></symbol>
</svg>
